<svg width="379pt" height="745pt" viewBox="0.00 0.00 379.00 745.45" xmlns="http://www.w3.org/2000/svg" xmlns:xlink="http://www.w3.org/1999/xlink">
<g id="graph0" class="graph" transform="scale(1 1) rotate(0) translate(4 741.45)">
<title>G</title>
<polygon fill="white" stroke="none" points="-4,4 -4,-741.45 375,-741.45 375,4 -4,4"/>
<g id="clust1" class="cluster">
<title>cluster_0</title>
<polygon fill="lightgrey" stroke="lightgrey" points="109,-472.65 109,-693.45 363,-693.45 363,-472.65 109,-472.65"/>
<text text-anchor="middle" x="236" y="-676.85" font-family="Times,serif" font-size="14.00">game and rules</text>
</g>
<g id="clust2" class="cluster">
<title>cluster_2</title>
<polygon fill="none" stroke="green" points="8,-221.01 8,-464.65 258,-464.65 258,-221.01 8,-221.01"/>
<text text-anchor="middle" x="133" y="-448.05" font-family="Times,serif" font-size="14.00">check winning rule</text>
</g>
<g id="clust3" class="cluster">
<title>cluster_1</title>
<polygon fill="none" stroke="blue" points="26,-64.21 26,-213.01 288,-213.01 288,-64.21 26,-64.21"/>
<text text-anchor="middle" x="157" y="-196.41" font-family="Times,serif" font-size="14.00">process names</text>
</g>
<!-- a0 -->
<g id="node1" class="node">
<title>a0</title>
<ellipse fill="lightgreen" stroke="lightgreen" cx="236" cy="-642.65" rx="119.1" ry="18"/>
<text text-anchor="middle" x="236" y="-638.45" font-family="Times,serif" font-size="14.00">get game from shared prefs.</text>
</g>
<!-- a1 -->
<g id="node2" class="node">
<title>a1</title>
<polygon fill="white" stroke="white" points="236,-588.65 153.65,-570.65 236,-552.65 318.35,-570.65 236,-588.65"/>
<polyline fill="none" stroke="white" points="165.37,-573.21 165.37,-568.08"/>
<polyline fill="none" stroke="white" points="224.28,-555.21 247.72,-555.21"/>
<polyline fill="none" stroke="white" points="306.63,-568.08 306.63,-573.21"/>
<polyline fill="none" stroke="white" points="247.72,-586.08 224.28,-586.08"/>
<text text-anchor="middle" x="236" y="-566.45" font-family="Times,serif" font-size="14.00">game is set?</text>
</g>
<!-- a0&#45;&gt;a1 -->
<g id="edge1" class="edge">
<title>a0-&gt;a1</title>
<path fill="none" stroke="black" d="M236,-624.34C236,-617.05 236,-608.37 236,-600.18"/>
<polygon fill="black" stroke="black" points="239.5,-600.26 236,-590.26 232.5,-600.26 239.5,-600.26"/>
</g>
<!-- a1yes -->
<g id="node3" class="node">
<title>a1yes</title>
<ellipse fill="white" stroke="white" cx="161" cy="-498.65" rx="27" ry="18"/>
<text text-anchor="middle" x="161" y="-494.45" font-family="Times,serif" font-size="14.00">yes</text>
</g>
<!-- a1&#45;&gt;a1yes -->
<g id="edge2" class="edge">
<title>a1-&gt;a1yes</title>
<path fill="none" stroke="black" d="M220.82,-555.48C210.35,-545.71 196.23,-532.53 184.34,-521.43"/>
<polygon fill="black" stroke="black" points="186.96,-519.09 177.26,-514.82 182.18,-524.2 186.96,-519.09"/>
</g>
<!-- a1no -->
<g id="node4" class="node">
<title>a1no</title>
<ellipse fill="white" stroke="white" cx="249" cy="-498.65" rx="27" ry="18"/>
<text text-anchor="middle" x="249" y="-494.45" font-family="Times,serif" font-size="14.00">no</text>
</g>
<!-- a1&#45;&gt;a1no -->
<g id="edge3" class="edge">
<title>a1-&gt;a1no</title>
<path fill="none" stroke="black" d="M239.08,-553.06C240.48,-545.5 242.19,-536.33 243.78,-527.75"/>
<polygon fill="black" stroke="black" points="247.19,-528.56 245.57,-518.09 240.31,-527.28 247.19,-528.56"/>
</g>
<!-- iswinningruleset -->
<g id="node5" class="node">
<title>iswinningruleset</title>
<polygon fill="lightgrey" stroke="black" points="133,-431.85 15.77,-413.85 133,-395.85 250.23,-413.85 133,-431.85"/>
<polyline fill="none" stroke="black" points="27.63,-415.67 27.63,-412.02"/>
<polyline fill="none" stroke="black" points="121.14,-397.67 144.86,-397.67"/>
<polyline fill="none" stroke="black" points="238.37,-412.02 238.37,-415.67"/>
<polyline fill="none" stroke="black" points="144.86,-430.02 121.14,-430.02"/>
<text text-anchor="middle" x="133" y="-409.65" font-family="Times,serif" font-size="14.00">rule is predefined?</text>
</g>
<!-- a1yes&#45;&gt;iswinningruleset -->
<g id="edge4" class="edge">
<title>a1yes-&gt;iswinningruleset</title>
<path fill="none" stroke="black" d="M155.33,-480.89C151.55,-469.71 146.49,-454.75 142.15,-441.9"/>
<polygon fill="black" stroke="black" points="145.57,-441.08 139.05,-432.73 138.94,-443.32 145.57,-441.08"/>
</g>
<!-- letuserdefine -->
<g id="node8" class="node">
<title>letuserdefine</title>
<ellipse fill="lightgrey" stroke="black" cx="174" cy="-258.43" rx="75.64" ry="29.42"/>
<text text-anchor="middle" x="174" y="-262.63" font-family="Times,serif" font-size="14.00">read custom </text>
<text text-anchor="middle" x="174" y="-245.83" font-family="Times,serif" font-size="14.00"> rule from prefs.</text>
</g>
<!-- a1no&#45;&gt;letuserdefine -->
<g id="edge10" class="edge">
<title>a1no-&gt;letuserdefine</title>
<path fill="none" stroke="black" d="M255.16,-480.74C256.74,-475.64 258.21,-469.97 259,-464.65 263.48,-434.4 267.41,-425.24 259,-395.85 248.37,-358.69 224.37,-321.81 204.57,-295.78"/>
<polygon fill="black" stroke="black" points="207.33,-293.64 198.43,-287.9 201.81,-297.94 207.33,-293.64"/>
</g>
<!-- iswyes -->
<g id="node6" class="node">
<title>iswyes</title>
<ellipse fill="lightgrey" stroke="black" cx="78" cy="-341.85" rx="27" ry="18"/>
<text text-anchor="middle" x="78" y="-337.65" font-family="Times,serif" font-size="14.00">yes</text>
</g>
<!-- iswinningruleset&#45;&gt;iswyes -->
<g id="edge5" class="edge">
<title>iswinningruleset-&gt;iswyes</title>
<path fill="none" stroke="black" d="M120.79,-397.31C113.89,-388.52 105.09,-377.33 97.27,-367.38"/>
<polygon fill="black" stroke="black" points="100.04,-365.23 91.11,-359.53 94.53,-369.55 100.04,-365.23"/>
</g>
<!-- iswno -->
<g id="node7" class="node">
<title>iswno</title>
<ellipse fill="lightgrey" stroke="black" cx="166" cy="-341.85" rx="27" ry="18"/>
<text text-anchor="middle" x="166" y="-337.65" font-family="Times,serif" font-size="14.00">no</text>
</g>
<!-- iswinningruleset&#45;&gt;iswno -->
<g id="edge6" class="edge">
<title>iswinningruleset-&gt;iswno</title>
<path fill="none" stroke="black" d="M140.65,-396.61C144.43,-388.6 149.09,-378.72 153.37,-369.63"/>
<polygon fill="black" stroke="black" points="156.41,-371.39 157.51,-360.85 150.08,-368.4 156.41,-371.39"/>
</g>
<!-- getnames -->
<g id="node9" class="node">
<title>getnames</title>
<ellipse fill="lightgrey" stroke="black" cx="157" cy="-162.21" rx="122.86" ry="18"/>
<text text-anchor="middle" x="157" y="-158.01" font-family="Times,serif" font-size="14.00">get names from shared prefs.</text>
</g>
<!-- iswyes&#45;&gt;getnames -->
<g id="edge12" class="edge">
<title>iswyes-&gt;getnames</title>
<path fill="none" stroke="black" d="M75.67,-323.44C73.24,-299.06 71.86,-254.02 89,-221.01 95.93,-207.67 107.38,-196.13 118.92,-186.96"/>
<polygon fill="black" stroke="black" points="120.97,-189.79 126.91,-181.01 116.79,-184.18 120.97,-189.79"/>
</g>
<!-- iswno&#45;&gt;letuserdefine -->
<g id="edge7" class="edge">
<title>iswno-&gt;letuserdefine</title>
<path fill="none" stroke="black" d="M167.7,-323.58C168.39,-316.52 169.22,-308.03 170.06,-299.58"/>
<polygon fill="black" stroke="black" points="173.53,-300.01 171.02,-289.71 166.56,-299.32 173.53,-300.01"/>
</g>
<!-- letuserdefine&#45;&gt;getnames -->
<g id="edge13" class="edge">
<title>letuserdefine-&gt;getnames</title>
<path fill="none" stroke="black" d="M168.81,-228.65C166.68,-216.88 164.23,-203.3 162.12,-191.57"/>
<polygon fill="black" stroke="black" points="165.63,-191.31 160.41,-182.09 158.74,-192.55 165.63,-191.31"/>
</g>
<!-- b1 -->
<g id="node10" class="node">
<title>b1</title>
<ellipse fill="lightgrey" stroke="black" cx="157" cy="-90.21" rx="100.33" ry="18"/>
<text text-anchor="middle" x="157" y="-86.01" font-family="Times,serif" font-size="14.00">add names as members</text>
</g>
<!-- getnames&#45;&gt;b1 -->
<g id="edge8" class="edge">
<title>getnames-&gt;b1</title>
<path fill="none" stroke="black" d="M157,-143.91C157,-136.62 157,-127.94 157,-119.75"/>
<polygon fill="black" stroke="black" points="160.5,-119.83 157,-109.83 153.5,-119.83 160.5,-119.83"/>
</g>
<!-- end -->
<g id="node12" class="node">
<title>end</title>
<polygon fill="none" stroke="black" points="175.11,-36.21 138.89,-36.21 138.89,0 175.11,0 175.11,-36.21"/>
<polyline fill="none" stroke="black" points="150.89,-36.21 138.89,-24.21"/>
<polyline fill="none" stroke="black" points="138.89,-12 150.89,0"/>
<polyline fill="none" stroke="black" points="163.11,0 175.11,-12"/>
<polyline fill="none" stroke="black" points="175.11,-24.21 163.11,-36.21"/>
<text text-anchor="middle" x="157" y="-13.91" font-family="Times,serif" font-size="14.00">end</text>
</g>
<!-- b1&#45;&gt;end -->
<g id="edge11" class="edge">
<title>b1-&gt;end</title>
<path fill="none" stroke="black" d="M157,-71.88C157,-64.58 157,-55.89 157,-47.69"/>
<polygon fill="black" stroke="black" points="160.5,-47.75 157,-37.75 153.5,-47.75 160.5,-47.75"/>
</g>
<!-- start -->
<g id="node11" class="node">
<title>start</title>
<polygon fill="none" stroke="black" points="236,-737.45 202.18,-719.45 236,-701.45 269.82,-719.45 236,-737.45"/>
<polyline fill="none" stroke="black" points="212.77,-725.08 212.77,-713.81"/>
<polyline fill="none" stroke="black" points="225.41,-707.08 246.59,-707.08"/>
<polyline fill="none" stroke="black" points="259.23,-713.81 259.23,-725.08"/>
<polyline fill="none" stroke="black" points="246.59,-731.81 225.41,-731.81"/>
<text text-anchor="middle" x="236" y="-715.25" font-family="Times,serif" font-size="14.00">init</text>
</g>
<!-- start&#45;&gt;a0 -->
<g id="edge9" class="edge">
<title>start-&gt;a0</title>
<path fill="none" stroke="black" d="M236,-701.1C236,-692.51 236,-681.91 236,-672.17"/>
<polygon fill="black" stroke="black" points="239.5,-672.41 236,-662.41 232.5,-672.41 239.5,-672.41"/>
</g>
</g>
</svg>